<mxfile host="65bd71144e">
    <diagram id="9diC8L49yvYmecdLorfI" name="Page-1">
        <mxGraphModel dx="1565" dy="1076" grid="0" gridSize="8" guides="1" tooltips="1" connect="1" arrows="1" fold="1" page="0" pageScale="1" pageWidth="827" pageHeight="1169" background="none" math="0" shadow="0">
            <root>
                <mxCell id="0"/>
                <mxCell id="1" parent="0"/>
                <mxCell id="75" value="" style="edgeStyle=orthogonalEdgeStyle;rounded=1;sketch=1;html=1;fontSize=14;" parent="1" source="67" target="70" edge="1">
                    <mxGeometry relative="1" as="geometry"/>
                </mxCell>
                <mxCell id="77" style="edgeStyle=orthogonalEdgeStyle;rounded=1;sketch=1;html=1;exitX=0.5;exitY=1;exitDx=0;exitDy=0;entryX=0.5;entryY=0;entryDx=0;entryDy=0;fontSize=14;" parent="1" source="67" target="68" edge="1">
                    <mxGeometry relative="1" as="geometry"/>
                </mxCell>
                <mxCell id="78" style="edgeStyle=orthogonalEdgeStyle;rounded=1;sketch=1;html=1;exitX=0.5;exitY=1;exitDx=0;exitDy=0;entryX=0.5;entryY=0;entryDx=0;entryDy=0;fontSize=14;" parent="1" source="67" target="72" edge="1">
                    <mxGeometry relative="1" as="geometry"/>
                </mxCell>
                <mxCell id="79" style="edgeStyle=orthogonalEdgeStyle;rounded=1;sketch=1;html=1;exitX=0.5;exitY=1;exitDx=0;exitDy=0;entryX=0.5;entryY=0;entryDx=0;entryDy=0;fontSize=14;" parent="1" source="67" target="69" edge="1">
                    <mxGeometry relative="1" as="geometry"/>
                </mxCell>
                <mxCell id="80" style="edgeStyle=orthogonalEdgeStyle;rounded=1;sketch=1;html=1;exitX=0.5;exitY=1;exitDx=0;exitDy=0;entryX=0.5;entryY=0;entryDx=0;entryDy=0;fontSize=14;" parent="1" source="67" target="71" edge="1">
                    <mxGeometry relative="1" as="geometry"/>
                </mxCell>
                <mxCell id="67" value="&lt;font style=&quot;font-size: 14px&quot;&gt;管理员&lt;/font&gt;" style="whiteSpace=wrap;html=1;rounded=1;sketch=1;" parent="1" vertex="1">
                    <mxGeometry x="218" y="-178" width="120" height="60" as="geometry"/>
                </mxCell>
                <mxCell id="85" style="edgeStyle=orthogonalEdgeStyle;html=1;exitX=0.5;exitY=1;exitDx=0;exitDy=0;entryX=0;entryY=0.5;entryDx=0;entryDy=0;" edge="1" parent="1" source="68" target="81">
                    <mxGeometry relative="1" as="geometry"/>
                </mxCell>
                <mxCell id="86" style="edgeStyle=orthogonalEdgeStyle;html=1;exitX=0.5;exitY=1;exitDx=0;exitDy=0;entryX=0;entryY=0.5;entryDx=0;entryDy=0;" edge="1" parent="1" source="68" target="82">
                    <mxGeometry relative="1" as="geometry"/>
                </mxCell>
                <mxCell id="87" style="edgeStyle=orthogonalEdgeStyle;html=1;exitX=0.5;exitY=1;exitDx=0;exitDy=0;entryX=0;entryY=0.5;entryDx=0;entryDy=0;" edge="1" parent="1" source="68" target="84">
                    <mxGeometry relative="1" as="geometry"/>
                </mxCell>
                <mxCell id="88" style="edgeStyle=orthogonalEdgeStyle;html=1;exitX=0.5;exitY=1;exitDx=0;exitDy=0;" edge="1" parent="1" source="68" target="83">
                    <mxGeometry relative="1" as="geometry"/>
                </mxCell>
                <mxCell id="110" style="edgeStyle=orthogonalEdgeStyle;html=1;exitX=0.5;exitY=1;exitDx=0;exitDy=0;entryX=0;entryY=0.5;entryDx=0;entryDy=0;" edge="1" parent="1" source="68" target="109">
                    <mxGeometry relative="1" as="geometry"/>
                </mxCell>
                <mxCell id="68" value="用户管理" style="whiteSpace=wrap;html=1;rounded=1;sketch=1;fontSize=14;" parent="1" vertex="1">
                    <mxGeometry x="-221" y="-24" width="120" height="60" as="geometry"/>
                </mxCell>
                <mxCell id="92" style="edgeStyle=orthogonalEdgeStyle;html=1;exitX=0.5;exitY=1;exitDx=0;exitDy=0;" edge="1" parent="1" source="69" target="89">
                    <mxGeometry relative="1" as="geometry"/>
                </mxCell>
                <mxCell id="93" style="edgeStyle=orthogonalEdgeStyle;html=1;exitX=0.5;exitY=1;exitDx=0;exitDy=0;" edge="1" parent="1" source="69" target="90">
                    <mxGeometry relative="1" as="geometry"/>
                </mxCell>
                <mxCell id="94" style="edgeStyle=orthogonalEdgeStyle;html=1;exitX=0.5;exitY=1;exitDx=0;exitDy=0;" edge="1" parent="1" source="69" target="91">
                    <mxGeometry relative="1" as="geometry"/>
                </mxCell>
                <mxCell id="69" value="角色管理" style="whiteSpace=wrap;html=1;rounded=1;sketch=1;fontSize=14;" parent="1" vertex="1">
                    <mxGeometry x="95" y="-23" width="120" height="60" as="geometry"/>
                </mxCell>
                <mxCell id="97" style="edgeStyle=orthogonalEdgeStyle;html=1;exitX=0.5;exitY=1;exitDx=0;exitDy=0;entryX=0;entryY=0.5;entryDx=0;entryDy=0;" edge="1" parent="1" source="70" target="95">
                    <mxGeometry relative="1" as="geometry"/>
                </mxCell>
                <mxCell id="98" style="edgeStyle=orthogonalEdgeStyle;html=1;exitX=0.5;exitY=1;exitDx=0;exitDy=0;entryX=0;entryY=0.5;entryDx=0;entryDy=0;" edge="1" parent="1" source="70" target="96">
                    <mxGeometry relative="1" as="geometry"/>
                </mxCell>
                <mxCell id="70" value="权限管理" style="whiteSpace=wrap;html=1;rounded=1;sketch=1;fontSize=14;" parent="1" vertex="1">
                    <mxGeometry x="294" y="-24" width="120" height="60" as="geometry"/>
                </mxCell>
                <mxCell id="101" style="edgeStyle=orthogonalEdgeStyle;html=1;exitX=0.5;exitY=1;exitDx=0;exitDy=0;entryX=0;entryY=0.5;entryDx=0;entryDy=0;" edge="1" parent="1" source="71" target="99">
                    <mxGeometry relative="1" as="geometry"/>
                </mxCell>
                <mxCell id="102" style="edgeStyle=orthogonalEdgeStyle;html=1;exitX=0.5;exitY=1;exitDx=0;exitDy=0;entryX=0;entryY=0.5;entryDx=0;entryDy=0;" edge="1" parent="1" source="71" target="100">
                    <mxGeometry relative="1" as="geometry"/>
                </mxCell>
                <mxCell id="71" value="板块管理" style="whiteSpace=wrap;html=1;rounded=1;sketch=1;fontSize=14;" parent="1" vertex="1">
                    <mxGeometry x="455" y="-23" width="120" height="60" as="geometry"/>
                </mxCell>
                <mxCell id="106" style="edgeStyle=orthogonalEdgeStyle;html=1;exitX=0.5;exitY=1;exitDx=0;exitDy=0;entryX=0;entryY=0.5;entryDx=0;entryDy=0;" edge="1" parent="1" source="72" target="103">
                    <mxGeometry relative="1" as="geometry"/>
                </mxCell>
                <mxCell id="107" style="edgeStyle=orthogonalEdgeStyle;html=1;exitX=0.5;exitY=1;exitDx=0;exitDy=0;entryX=0;entryY=0.5;entryDx=0;entryDy=0;" edge="1" parent="1" source="72" target="104">
                    <mxGeometry relative="1" as="geometry"/>
                </mxCell>
                <mxCell id="108" style="edgeStyle=orthogonalEdgeStyle;html=1;exitX=0.5;exitY=1;exitDx=0;exitDy=0;entryX=0;entryY=0.5;entryDx=0;entryDy=0;" edge="1" parent="1" source="72" target="105">
                    <mxGeometry relative="1" as="geometry"/>
                </mxCell>
                <mxCell id="72" value="动态管理" style="whiteSpace=wrap;html=1;rounded=1;sketch=1;fontSize=14;" parent="1" vertex="1">
                    <mxGeometry x="654" y="-23" width="120" height="60" as="geometry"/>
                </mxCell>
                <mxCell id="81" value="用&lt;br&gt;户&lt;br&gt;查&lt;br&gt;询" style="rounded=1;direction=south;labelPosition=center;verticalLabelPosition=middle;align=center;verticalAlign=middle;html=1;whiteSpace=wrap;labelBackgroundColor=none;labelBorderColor=none;horizontal=1;" vertex="1" parent="1">
                    <mxGeometry x="-269" y="109" width="60" height="120" as="geometry"/>
                </mxCell>
                <mxCell id="82" value="添&lt;br&gt;加&lt;br&gt;用&lt;br&gt;户" style="rounded=1;direction=south;labelPosition=center;verticalLabelPosition=middle;align=center;verticalAlign=middle;html=1;whiteSpace=wrap;labelBackgroundColor=none;labelBorderColor=none;horizontal=1;" vertex="1" parent="1">
                    <mxGeometry x="-191" y="109" width="60" height="120" as="geometry"/>
                </mxCell>
                <mxCell id="83" value="封&lt;br&gt;禁&lt;br&gt;用&lt;br&gt;户" style="rounded=1;direction=south;labelPosition=center;verticalLabelPosition=middle;align=center;verticalAlign=middle;html=1;whiteSpace=wrap;labelBackgroundColor=none;labelBorderColor=none;horizontal=1;" vertex="1" parent="1">
                    <mxGeometry x="-35" y="109" width="60" height="120" as="geometry"/>
                </mxCell>
                <mxCell id="84" value="删&lt;br&gt;除&lt;br&gt;用&lt;br&gt;户" style="rounded=1;direction=south;labelPosition=center;verticalLabelPosition=middle;align=center;verticalAlign=middle;html=1;whiteSpace=wrap;labelBackgroundColor=none;labelBorderColor=none;horizontal=1;" vertex="1" parent="1">
                    <mxGeometry x="-113" y="109" width="60" height="120" as="geometry"/>
                </mxCell>
                <mxCell id="89" value="添&lt;br&gt;加&lt;br&gt;角&lt;br&gt;&lt;span style=&quot;color: rgba(0 , 0 , 0 , 0) ; font-family: monospace ; font-size: 0px&quot;&gt;%3CmxGraphModel%3E%3Croot%3E%3CmxCell%20id%3D%220%22%2F%3E%3CmxCell%20id%3D%221%22%20parent%3D%220%22%2F%3E%3CmxCell%20id%3D%222%22%20value%3D%22%E5%B0%81%26lt%3Bbr%26gt%3B%E7%A6%81%26lt%3Bbr%26gt%3B%E7%94%A8%26lt%3Bbr%26gt%3B%E6%88%B7%22%20style%3D%22rounded%3D1%3Bdirection%3Dsouth%3BlabelPosition%3Dcenter%3BverticalLabelPosition%3Dmiddle%3Balign%3Dcenter%3BverticalAlign%3Dmiddle%3Bhtml%3D1%3BwhiteSpace%3Dwrap%3BlabelBackgroundColor%3Dnone%3BlabelBorderColor%3Dnone%3Bhorizontal%3D1%3B%22%20vertex%3D%221%22%20parent%3D%221%22%3E%3CmxGeometry%20x%3D%22-62%22%20y%3D%2284%22%20width%3D%2260%22%20height%3D%22120%22%20as%3D%22geometry%22%2F%3E%3C%2FmxCell%3E%3C%2Froot%3E%3C%2FmxGraphModel%3E&lt;/span&gt;色" style="rounded=1;direction=south;labelPosition=center;verticalLabelPosition=middle;align=center;verticalAlign=middle;html=1;whiteSpace=wrap;labelBackgroundColor=none;labelBorderColor=none;horizontal=1;" vertex="1" parent="1">
                    <mxGeometry x="49" y="109" width="60" height="120" as="geometry"/>
                </mxCell>
                <mxCell id="90" value="分&lt;br&gt;配&lt;br&gt;权&lt;br&gt;限" style="rounded=1;direction=south;labelPosition=center;verticalLabelPosition=middle;align=center;verticalAlign=middle;html=1;whiteSpace=wrap;labelBackgroundColor=none;labelBorderColor=none;horizontal=1;" vertex="1" parent="1">
                    <mxGeometry x="125" y="109" width="60" height="120" as="geometry"/>
                </mxCell>
                <mxCell id="91" value="删&lt;br&gt;除&lt;br&gt;角&lt;br&gt;色" style="rounded=1;direction=south;labelPosition=center;verticalLabelPosition=middle;align=center;verticalAlign=middle;html=1;whiteSpace=wrap;labelBackgroundColor=none;labelBorderColor=none;horizontal=1;" vertex="1" parent="1">
                    <mxGeometry x="201" y="109" width="60" height="120" as="geometry"/>
                </mxCell>
                <mxCell id="95" value="添&lt;br&gt;加&lt;br&gt;权&lt;br&gt;限" style="rounded=1;direction=south;labelPosition=center;verticalLabelPosition=middle;align=center;verticalAlign=middle;html=1;whiteSpace=wrap;labelBackgroundColor=none;labelBorderColor=none;horizontal=1;" vertex="1" parent="1">
                    <mxGeometry x="286" y="111" width="60" height="120" as="geometry"/>
                </mxCell>
                <mxCell id="96" value="删&lt;br&gt;除&lt;br&gt;权&lt;br&gt;限" style="rounded=1;direction=south;labelPosition=center;verticalLabelPosition=middle;align=center;verticalAlign=middle;html=1;whiteSpace=wrap;labelBackgroundColor=none;labelBorderColor=none;horizontal=1;" vertex="1" parent="1">
                    <mxGeometry x="362" y="111" width="60" height="120" as="geometry"/>
                </mxCell>
                <mxCell id="99" value="添&lt;br&gt;加&lt;br&gt;板&lt;br&gt;块" style="rounded=1;direction=south;labelPosition=center;verticalLabelPosition=middle;align=center;verticalAlign=middle;html=1;whiteSpace=wrap;labelBackgroundColor=none;labelBorderColor=none;horizontal=1;" vertex="1" parent="1">
                    <mxGeometry x="447" y="111" width="60" height="120" as="geometry"/>
                </mxCell>
                <mxCell id="100" value="删&lt;br&gt;除&lt;br&gt;板&lt;br&gt;块" style="rounded=1;direction=south;labelPosition=center;verticalLabelPosition=middle;align=center;verticalAlign=middle;html=1;whiteSpace=wrap;labelBackgroundColor=none;labelBorderColor=none;horizontal=1;" vertex="1" parent="1">
                    <mxGeometry x="523" y="111" width="60" height="120" as="geometry"/>
                </mxCell>
                <mxCell id="103" value="审&lt;br&gt;批&lt;br&gt;动&lt;br&gt;态" style="rounded=1;direction=south;labelPosition=center;verticalLabelPosition=middle;align=center;verticalAlign=middle;html=1;whiteSpace=wrap;labelBackgroundColor=none;labelBorderColor=none;horizontal=1;" vertex="1" parent="1">
                    <mxGeometry x="608" y="111" width="60" height="120" as="geometry"/>
                </mxCell>
                <mxCell id="104" value="删&lt;br&gt;除&lt;br&gt;动&lt;br&gt;态" style="rounded=1;direction=south;labelPosition=center;verticalLabelPosition=middle;align=center;verticalAlign=middle;html=1;whiteSpace=wrap;labelBackgroundColor=none;labelBorderColor=none;horizontal=1;" vertex="1" parent="1">
                    <mxGeometry x="760" y="111" width="60" height="120" as="geometry"/>
                </mxCell>
                <mxCell id="112" value="" style="edgeStyle=orthogonalEdgeStyle;html=1;" edge="1" parent="1" source="105" target="111">
                    <mxGeometry relative="1" as="geometry"/>
                </mxCell>
                <mxCell id="105" value="管&lt;br&gt;理&lt;br&gt;评&lt;br&gt;论" style="rounded=1;direction=south;labelPosition=center;verticalLabelPosition=middle;align=center;verticalAlign=middle;html=1;whiteSpace=wrap;labelBackgroundColor=none;labelBorderColor=none;horizontal=1;" vertex="1" parent="1">
                    <mxGeometry x="684" y="111" width="60" height="120" as="geometry"/>
                </mxCell>
                <mxCell id="109" value="分&lt;br&gt;配&lt;br&gt;角&lt;br&gt;色" style="rounded=1;direction=south;labelPosition=center;verticalLabelPosition=middle;align=center;verticalAlign=middle;html=1;whiteSpace=wrap;labelBackgroundColor=none;labelBorderColor=none;horizontal=1;" vertex="1" parent="1">
                    <mxGeometry x="-347" y="109" width="60" height="120" as="geometry"/>
                </mxCell>
                <mxCell id="111" value="删&lt;br&gt;除&lt;br&gt;评&lt;br&gt;论" style="rounded=1;direction=south;labelPosition=center;verticalLabelPosition=middle;align=center;verticalAlign=middle;html=1;whiteSpace=wrap;labelBackgroundColor=none;labelBorderColor=none;horizontal=1;" vertex="1" parent="1">
                    <mxGeometry x="684" y="272" width="60" height="120" as="geometry"/>
                </mxCell>
            </root>
        </mxGraphModel>
    </diagram>
</mxfile>